{
  "accessors": [
    {
      "bufferView": 2,
      "componentType": 5126,
      "count": 122,
      "max": [
        0.1548440009355545,
        -0.2224770039319992,
        1.0369720458984375
      ],
      "min": [
        -0.1548440009355545,
        -0.2465900033712387,
        1.0156749486923218
      ],
      "type": "VEC3"
    },
    {
      "bufferView": 2,
      "byteOffset": 1464,
      "componentType": 5126,
      "count": 122,
      "max": [
        0.9997158646583557,
        0.5455571413040161,
        0.8471262454986572
      ],
      "min": [
        -0.9997158646583557,
        -0.44374048709869385,
        -0.023649420589208603
      ],
      "type": "VEC3"
    },
    {
      "bufferView": 1,
      "componentType": 5126,
      "count": 122,
      "max": [
        0.09369999915361404,
        0.27570000290870667
      ],
      "min": [
        0.0851999968290329,
        0.2513999938964844
      ],
      "type": "VEC2"
    },
    {
      "bufferView": 0,
      "componentType": 5125,
      "count": 600,
      "type": "SCALAR"
    },
    {
      "bufferView": 2,
      "byteOffset": 2928,
      "componentType": 5126,
      "count": 1660,
      "max": [
        0.5840020179748535,
        0.49595698714256287,
        1.25
      ],
      "min": [
        -0.5840020179748535,
        -0.49595698714256287,
        -1.25
      ],
      "type": "VEC3"
    },
    {
      "bufferView": 2,
      "byteOffset": 22848,
      "componentType": 5126,
      "count": 1660,
      "max": [
        0.9981915354728699,
        0.9943733811378479,
        0.9804698824882507
      ],
      "min": [
        -0.9981915354728699,
        -0.9999917149543762,
        -0.9999863505363464
      ],
      "type": "VEC3"
    },
    {
      "bufferView": 1,
      "byteOffset": 976,
      "componentType": 5126,
      "count": 1660,
      "max": [
        1.0,
        1.0
      ],
      "min": [
        0.0,
        0.0
      ],
      "type": "VEC2"
    },
    {
      "bufferView": 0,
      "byteOffset": 2400,
      "componentType": 5125,
      "count": 9804,
      "type": "SCALAR"
    },
    {
      "bufferView": 2,
      "byteOffset": 42768,
      "componentType": 5126,
      "count": 120,
      "max": [
        0.15474000573158264,
        -0.2172120064496994,
        1.0386409759521484
      ],
      "min": [
        -0.15474000573158264,
        -0.2527160048484802,
        1.007254958152771
      ],
      "type": "VEC3"
    },
    {
      "bufferView": 2,
      "byteOffset": 44208,
      "componentType": 5126,
      "count": 120,
      "max": [
        0.949988842010498,
        0.8391607999801636,
        0.9847541451454163
      ],
      "min": [
        -0.949988842010498,
        -0.7705765962600708,
        -0.41688740253448486
      ],
      "type": "VEC3"
    },
    {
      "bufferView": 1,
      "byteOffset": 14256,
      "componentType": 5126,
      "count": 120,
      "max": [
        0.09709999710321426,
        0.2809999883174896
      ],
      "min": [
        0.08449999988079071,
        0.2451999932527542
      ],
      "type": "VEC2"
    },
    {
      "bufferView": 0,
      "byteOffset": 41616,
      "componentType": 5125,
      "count": 480,
      "type": "SCALAR"
    }
  ],
  "asset": {
    "extras": {
      "author": "dinomaster (https://sketchfab.com/dinomaster)",
      "license": "CC-BY-4.0 (http://creativecommons.org/licenses/by/4.0/)",
      "source": "https://sketchfab.com/3d-models/orca-449ece6a8669473a936afdd38da0d638",
      "title": "orca"
    },
    "generator": "Sketchfab-13.80.0",
    "version": "2.0"
  },
  "bufferViews": [
    {
      "buffer": 0,
      "byteLength": 43536,
      "name": "floatBufferViews",
      "target": 34963
    },
    {
      "buffer": 0,
      "byteLength": 15216,
      "byteOffset": 43536,
      "byteStride": 8,
      "name": "floatBufferViews",
      "target": 34962
    },
    {
      "buffer": 0,
      "byteLength": 45648,
      "byteOffset": 58752,
      "byteStride": 12,
      "name": "floatBufferViews",
      "target": 34962
    }
  ],
  "buffers": [
    {
      "byteLength": 104400,
      "uri": "scene.bin"
    }
  ],
  "images": [
    {
      "uri": "textures/mat_1-ORCA.jpg_baseColor.jpeg"
    },
    {
      "uri": "textures/mat_2-color_0.800000-0.790560-0.752960.jpg_baseColor.jpeg"
    }
  ],
  "materials": [
    {
      "doubleSided": true,
      "name": "mat_0-color_0.696480-0.687040-0.677680.jpg",
      "pbrMetallicRoughness": {
        "baseColorFactor": [
          0.69648,
          0.69648,
          0.69648,
          1.0
        ],
        "metallicFactor": 0.5,
        "roughnessFactor": 0.5
      }
    },
    {
      "doubleSided": true,
      "name": "mat_1-ORCA.jpg",
      "pbrMetallicRoughness": {
        "baseColorFactor": [
          0.698039,
          0.698039,
          0.698039,
          1.0
        ],
        "baseColorTexture": {
          "index": 0
        },
        "metallicFactor": 0.5,
        "roughnessFactor": 0.5
      }
    },
    {
      "doubleSided": true,
      "name": "mat_2-color_0.800000-0.790560-0.752960.jpg",
      "pbrMetallicRoughness": {
        "baseColorFactor": [
          0.8,
          0.8,
          0.8,
          1.0
        ],
        "baseColorTexture": {
          "index": 1
        },
        "metallicFactor": 0.5,
        "roughnessFactor": 0.5
      }
    }
  ],
  "meshes": [
    {
      "name": "Object_0",
      "primitives": [
        {
          "attributes": {
            "NORMAL": 1,
            "POSITION": 0,
            "TEXCOORD_0": 2
          },
          "indices": 3,
          "material": 0,
          "mode": 4
        }
      ]
    },
    {
      "name": "Object_1",
      "primitives": [
        {
          "attributes": {
            "NORMAL": 5,
            "POSITION": 4,
            "TEXCOORD_0": 6
          },
          "indices": 7,
          "material": 1,
          "mode": 4
        }
      ]
    },
    {
      "name": "Object_2",
      "primitives": [
        {
          "attributes": {
            "NORMAL": 9,
            "POSITION": 8,
            "TEXCOORD_0": 10
          },
          "indices": 11,
          "material": 2,
          "mode": 4
        }
      ]
    }
  ],
  "nodes": [
    {
      "children": [
        1
      ],
      "matrix": [
        1.0,
        0.0,
        0.0,
        0.0,
        0.0,
        2.220446049250313e-16,
        -1.0,
        0.0,
        0.0,
        1.0,
        2.220446049250313e-16,
        0.0,
        0.0,
        0.0,
        0.0,
        1.0
      ],
      "name": "Sketchfab_model"
    },
    {
      "children": [
        2
      ],
      "name": "root"
    },
    {
      "children": [
        3
      ],
      "matrix": [
        1.0,
        0.0,
        0.0,
        0.0,
        0.0,
        2.220446049250313e-16,
        1.0,
        0.0,
        0.0,
        -1.0,
        2.220446049250313e-16,
        0.0,
        0.0,
        0.0,
        0.0,
        1.0
      ],
      "name": "GLTF_SceneRootNode"
    },
    {
      "children": [
        4,
        6,
        8
      ],
      "name": "_3"
    },
    {
      "children": [
        5
      ],
      "name": "_0"
    },
    {
      "mesh": 0,
      "name": "Object_5"
    },
    {
      "children": [
        7
      ],
      "name": "_1"
    },
    {
      "mesh": 1,
      "name": "Object_7"
    },
    {
      "children": [
        9
      ],
      "name": "_2"
    },
    {
      "mesh": 2,
      "name": "Object_9"
    }
  ],
  "samplers": [
    {
      "magFilter": 9729,
      "minFilter": 9987,
      "wrapS": 10497,
      "wrapT": 10497
    }
  ],
  "scene": 0,
  "scenes": [
    {
      "name": "Sketchfab_Scene",
      "nodes": [
        0
      ]
    }
  ],
  "textures": [
    {
      "sampler": 0,
      "source": 0
    },
    {
      "sampler": 0,
      "source": 1
    }
  ]
}
